HIERARCHY
ROOT Bone
{
	OFFSET 0.000000 0.000000 0.000000
	CHANNELS 6 Xposition Yposition Zposition Xrotation Yrotation Zrotation
	JOINT Bone.001
	{
		OFFSET 4.175152 0.041582 -0.060209
		CHANNELS 3 Xrotation Yrotation Zrotation
		JOINT Bone.002
		{
			OFFSET 4.378859 -0.087822 0.028986
			CHANNELS 3 Xrotation Yrotation Zrotation
			JOINT Bone.003
			{
				OFFSET 4.579176 0.176569 -0.018694
				CHANNELS 3 Xrotation Yrotation Zrotation
				JOINT Bone.004
				{
					OFFSET 4.294247 -0.123778 0.088224
					CHANNELS 3 Xrotation Yrotation Zrotation
					JOINT Bone.005
					{
						OFFSET 4.402290 -0.144739 0.030350
						CHANNELS 3 Xrotation Yrotation Zrotation
						JOINT Bone.006
						{
							OFFSET 4.175339 -0.003522 -0.061349
							CHANNELS 3 Xrotation Yrotation Zrotation
							JOINT Bone.007
							{
								OFFSET 4.386326 0.046518 0.030705
								CHANNELS 3 Xrotation Yrotation Zrotation
								JOINT Bone.008
								{
									OFFSET 4.571526 0.087332 -0.019274
									CHANNELS 3 Xrotation Yrotation Zrotation
									JOINT Bone.009
									{
										OFFSET 4.294243 -0.123777 0.088224
										CHANNELS 3 Xrotation Yrotation Zrotation
										End Site
										{
											OFFSET 4.404610 0.017978 0.033836
										}
									}
								}
							}
						}
					}
				}
			}
		}
	}
}
MOTION
Frames: 25
Frame Time: 0.041667
0.000000 0.000000 0.000000 -0.005941 -0.121865 0.018300 -0.004287 -0.087846 0.013193 -0.007433 -0.152600 0.022914 -0.007326 -0.150390 0.022582 -0.000517 -0.010580 0.001589 0.000197 0.004022 -0.000604 0.004386 0.089461 -0.013443 0.002064 0.042153 -0.006333 0.000500 0.010223 -0.001536 0.000769 0.015714 -0.002361 
0.000000 0.000000 0.000000 -0.022735 -0.470766 0.070625 -0.016445 -0.339314 0.050923 -0.028381 -0.589577 0.088419 -0.027976 -0.581033 0.087140 -0.001996 -0.040859 0.006138 0.000924 0.018887 -0.002837 0.017239 0.349173 -0.052508 0.008171 0.166312 -0.024996 0.002133 0.043549 -0.006543 0.003090 0.063074 -0.009477 
0.000000 0.000000 0.000000 -0.048609 -1.021778 0.153056 -0.035304 -0.736338 0.110385 -0.060459 -1.279915 0.191590 -0.059612 -1.261346 0.188821 -0.004326 -0.088649 0.013314 0.002390 0.048794 -0.007331 0.038248 0.766183 -0.115362 0.018228 0.369022 -0.055496 0.005099 0.103960 -0.015622 0.006992 0.142408 -0.021402 
0.000000 0.000000 0.000000 -0.081597 -1.750042 0.261643 -0.059591 -1.260883 0.188751 -0.100979 -2.192724 0.327461 -0.099601 -2.160868 0.322730 -0.007393 -0.151762 0.022789 0.004803 0.097940 -0.014717 0.067261 1.327579 -0.200239 0.032188 0.646837 -0.097357 0.009609 0.195439 -0.029376 0.012510 0.254044 -0.038192 
0.000000 0.000000 0.000000 -0.119659 -2.630667 0.392446 -0.087995 -1.894899 0.283195 -0.147140 -3.297055 0.491099 -0.145200 -3.249081 0.484006 -0.011084 -0.228010 0.034230 0.008379 0.170530 -0.025630 0.104232 2.020464 -0.305431 0.050040 0.996308 -0.150117 0.015884 0.321974 -0.048414 0.019690 0.398309 -0.059906 
0.000000 0.000000 0.000000 -0.160789 -3.638659 0.541570 -0.119222 -2.620296 0.390909 -0.196188 -4.561751 0.677647 -0.193710 -4.495268 0.667861 -0.015286 -0.315202 0.047308 0.013339 0.270762 -0.040706 0.149177 2.831913 -0.429275 0.071802 1.413994 -0.213331 0.024160 0.487551 -0.073347 0.028586 0.575530 -0.086606 
0.000000 0.000000 0.000000 -0.203100 -4.748862 0.705180 -0.152044 -3.418926 0.509112 -0.245550 -5.955351 0.882365 -0.242614 -5.868423 0.869618 -0.019888 -0.411152 0.061692 0.019916 0.402835 -0.060586 0.202138 3.748961 -0.570144 0.097520 1.896457 -0.286568 0.034688 0.696158 -0.104796 0.039260 0.786042 -0.118359 
0.000000 0.000000 0.000000 -0.244897 -5.935958 0.879521 -0.185331 -4.272580 0.635065 -0.292945 -7.446056 1.100629 -0.289673 -7.337207 1.084712 -0.024778 -0.513664 0.077053 0.028354 0.570948 -0.085914 0.263143 4.758574 -0.726435 0.127260 2.440251 -0.369409 0.047748 0.951791 -0.143391 0.051786 1.030165 -0.155236 
0.000000 0.000000 0.000000 -0.284725 -7.174457 1.060905 -0.218084 -5.162981 0.766063 -0.336461 -9.001750 1.327932 -0.333011 -8.870005 1.308692 -0.029848 -0.620567 0.093060 0.038918 0.779320 -0.117344 0.332179 5.847648 -0.896554 0.161103 3.041951 -0.461452 0.063643 1.258446 -0.189771 0.066248 1.308243 -0.197311 
0.000000 0.000000 0.000000 -0.321414 -8.438752 1.245707 -0.249454 -6.071806 0.899438 -0.374621 -10.590084 1.559840 -0.371173 -10.434925 1.537183 -0.034990 -0.729655 0.109386 0.051888 1.032132 -0.155532 0.409155 7.003009 -1.078909 0.199141 3.698114 -0.562307 0.082714 1.620122 -0.244593 0.082739 1.620597 -0.244665 
0.000000 0.000000 0.000000 -0.354095 -9.703158 1.430341 -0.278748 -6.980699 1.032556 -0.406417 -12.178554 1.791965 -0.403162 -11.999988 1.765850 -0.040102 -0.838742 0.125701 0.067577 1.333620 -0.201154 0.493878 8.211399 -1.271880 0.241473 4.405318 -0.671601 0.105338 2.040826 -0.308530 0.101363 1.967560 -0.297382 
0.000000 0.000000 0.000000 -0.382215 -10.941980 1.611233 -0.305443 -7.871304 1.162797 -0.431339 -13.734656 2.019903 -0.428462 -13.533177 1.990348 -0.045080 -0.945637 0.141681 0.086330 1.687981 -0.254891 0.586036 9.459542 -1.473819 0.288205 5.160134 -0.788968 0.131941 2.524536 -0.382278 0.122239 2.349461 -0.355556 
0.000000 0.000000 0.000000 -0.405533 -12.129583 1.784802 -0.329171 -8.725278 1.287557 -0.449367 -15.226001 2.239191 -0.447035 -15.002594 2.206277 -0.049828 -1.048166 0.156997 0.108525 2.099401 -0.317445 0.685162 10.734106 -1.683007 0.339435 5.959101 -0.914059 0.163006 3.075266 -0.466561 0.145495 2.766628 -0.419285 
0.000000 0.000000 0.000000 -0.424097 -13.240442 1.947430 -0.349716 -9.524325 1.404232 -0.460956 -16.620437 2.445254 -0.459300 -16.376565 2.409133 -0.054247 -1.144119 0.171327 0.134590 2.572092 -0.389541 0.790621 12.021781 -1.897651 0.395268 6.798834 -1.046536 0.199075 3.696997 -0.562134 0.171272 3.219387 -0.488674 
0.000000 0.000000 0.000000 -0.438211 -14.249174 2.095449 -0.366989 -10.250196 1.510210 -0.466989 -17.886054 2.633373 -0.466093 -17.623678 2.594279 -0.058242 -1.231325 0.184342 0.165006 3.110245 -0.471926 0.901589 13.309289 -2.115854 0.455793 7.675879 -1.186067 0.240766 4.393682 -0.669797 0.199727 3.708062 -0.563840 
0.000000 0.000000 0.000000 -0.448387 -15.130566 2.225127 -0.381000 -10.884697 1.602866 -0.468699 -18.991343 2.798680 -0.468584 -18.712837 2.756929 -0.061719 -1.307581 0.195719 0.200313 3.718028 -0.565376 1.017042 14.583410 -2.335603 0.521096 8.586825 -1.332332 0.288781 5.169273 -0.790395 0.231028 4.232970 -0.644906 
0.000000 0.000000 0.000000 -0.455269 -15.859544 2.332673 -0.391825 -11.409698 1.679563 -0.467561 -19.905056 2.936158 -0.468180 -19.613260 2.892165 -0.064586 -1.370711 0.205134 0.241124 4.399595 -0.670712 1.135734 15.831043 -2.554732 0.591251 9.528261 -1.485020 0.343917 6.027661 -0.924836 0.265362 4.794419 -0.732009 
0.000000 0.000000 0.000000 -0.459545 -16.411152 2.414252 -0.399555 -11.807093 1.737646 -0.465140 -20.596138 3.040691 -0.466364 -20.294300 2.994974 -0.066751 -1.418522 0.212260 0.288137 5.159053 -0.788802 1.256196 17.039167 -2.770925 0.666316 10.496805 -1.643820 0.407085 6.972701 -1.074099 0.302930 5.392721 -0.825292 
0.000000 0.000000 0.000000 -0.461835 -16.760453 2.466011 -0.404244 -12.058819 1.774453 -0.462903 -21.033605 3.107126 -0.464536 -20.725430 3.060306 -0.068120 -1.448816 0.216778 0.342137 6.000478 -0.920564 1.376730 18.194961 -2.981685 0.746332 11.489048 -1.808429 0.479321 8.008145 -1.239254 0.343951 6.028176 -0.924918 
0.000000 0.000000 0.000000 -0.462558 -16.882459 2.484108 -0.405844 -12.146755 1.787314 -0.461993 -21.186386 3.130378 -0.463772 -20.876002 3.083168 -0.068598 -1.459416 0.218358 0.404029 6.927872 -1.066987 1.495410 19.285685 -3.184344 0.831324 12.501635 -1.978542 0.561812 9.137669 -1.421477 0.388662 6.701077 -1.031059 
0.000000 0.000000 0.000000 -0.462558 -16.882459 2.484108 -0.405844 -12.146755 1.787314 -0.461993 -21.186386 3.130378 -0.463772 -20.876002 3.083168 -0.065128 -1.382674 0.206918 0.474698 7.943222 -1.228846 1.610390 20.301281 -3.376532 0.921280 13.531112 -2.153834 0.655807 10.363493 -1.621855 0.437256 7.410754 -1.143759 
0.000000 0.000000 0.000000 -0.462558 -16.882459 2.484108 -0.405844 -12.146755 1.787314 -0.461993 -21.186386 3.130378 -0.463772 -20.876002 3.083168 -0.055112 -1.162969 0.174141 0.554285 9.036809 -1.405116 1.720880 21.241984 -3.557714 1.015959 14.571758 -2.333577 0.761702 11.675213 -1.839539 0.489583 8.151593 -1.262274 
0.000000 0.000000 0.000000 -0.462558 -16.882459 2.484108 -0.405844 -12.146755 1.787314 -0.461993 -21.186386 3.130378 -0.463772 -20.876002 3.083168 -0.039045 -0.816128 0.122320 0.642603 10.194954 -1.594135 1.826418 22.110466 -3.727842 1.114947 15.616818 -2.516817 0.879437 13.057421 -2.072874 0.545342 8.916361 -1.385598 
0.000000 0.000000 0.000000 -0.462558 -16.882459 2.484108 -0.405844 -12.146755 1.787314 -0.461993 -21.186386 3.130378 -0.463772 -20.876002 3.083168 -0.017340 -0.357967 0.053722 0.739335 11.403843 -1.794213 1.926597 22.909414 -3.886875 1.217735 16.659458 -2.702537 1.008799 14.494510 -2.320141 0.604179 9.697830 -1.512693 
0.000000 0.000000 0.000000 -0.462558 -16.882459 2.484108 -0.405844 -12.146755 1.787314 -0.461993 -21.186386 3.130378 -0.463772 -20.876002 3.083168 0.009621 0.195688 -0.029412 0.844026 12.649574 -2.003583 2.021065 23.641423 -4.034809 1.323714 17.692828 -2.889632 1.149374 15.970680 -2.579515 0.665678 10.488726 -1.642490 
